<svg xmlns="http://www.w3.org/2000/svg" width="296" height="335" viewBox="0 0 296 335" role="img" aria-labelledby="title  desc">
  <title id="title">Drupal 8</title>
  <desc id="desc">Drupal 8 Logo</desc>
  <g fill="#2BA9E0" fill-rule="evenodd" role="presentation">
    <path d="M139.298 207.378c-29.125 0-52.73 23.606-52.73 52.724 0 29.117 23.605 52.728 52.73 52.728 29.11 0 52.717-23.61 52.717-52.728 0-29.118-23.606-52.724-52.717-52.724zm65.56-10.058c15.622 16.313 25.238 38.415 25.238 62.78 0 30.858-15.41 58.105-38.935 74.51 43.486-13.416 79.46-46.1 95.57-85.688 22.27-54.76 1.535-95.98-33.28-133.35 1.06 4.838 1.656 9.853 1.656 15.007 0 31.69-21.25 58.405-50.246 66.74zm-59.542-66.74c0 22.275 18.064 40.33 40.337 40.33 22.273 0 40.327-18.056 40.327-40.33 0-22.27-18.055-40.325-40.327-40.325s-40.337 18.055-40.337 40.325z"/>
    <path d="M69.84 318.572c-13.32-15.8-21.346-36.19-21.346-58.47 0-46.48 34.933-84.774 79.968-90.13-7.728-11.198-12.266-24.765-12.266-39.392 0-38.352 31.09-69.448 69.458-69.448 3.167 0 6.28.234 9.327.645-22.72-19.61-45.39-39.496-63.283-61.24 9.14 95.217-86.72 60.62-122.156 148.36-23.78 58.87-2.35 131.645 60.3 169.675z"/>
  </g>
</svg>
